# xmcd
#
# Track frame offsets: 
#        150
#        12705
#        24890
#        37507
#        49437
#        61545
#        74757
#        86492
#        98555
#        111267
#        124985
#        137652
#        148965
#        162835
#        177395
#        190570
#        204692
#        220360
#        239012
#        254352
#
# Disc length: 3631 seconds
#
# Revision: 2
# Processed by: cddbd v1.5.2PL0 Copyright (c) Steve Scherf et al.
# Submitted via: ExactAudioCopy v1.0b1
#
DISCID=260e2d14
DTITLE=Four Tops - Legends Of Soul
DYEAR=2002
DGENRE=Soul
TTITLE0=Baby I Need Your Loving
TTITLE1=I Can't Help Myself
TTITLE2=It's The Same Old Song
TTITLE3=Ask The Lonely
TTITLE4=Something About You
TTITLE5=Reach Out I'll Be There
TTITLE6=Standing In The Shadows Of Love
TTITLE7=Shake Me Wake Me (When It's Over)
TTITLE8=Loving You Is Sweeter Than Ever
TTITLE9=Bernadette
TTITLE10=You Keep Running Away
TTITLE11=Seven Rooms Of Gloom
TTITLE12=Just Seven Numbers (Can Straighten Out My Life)
TTITLE13=Still Water (Love)
TTITLE14=Keeper Of The Castle
TTITLE15=Ain't No Woman (Like The One I've Got)
TTITLE16=Are You Man Enough
TTITLE17=One Chain Don't Make No Prison
TTITLE18=When She Was My Girl
TTITLE19=I Believe In You And Me
EXTD=R616-11\n314584946-5\nUPC# 1058306222
EXTT0=
EXTT1=
EXTT2=
EXTT3=
EXTT4=
EXTT5=
EXTT6=
EXTT7=
EXTT8=
EXTT9=
EXTT10=
EXTT11=
EXTT12=
EXTT13=
EXTT14=
EXTT15=
EXTT16=
EXTT17=
EXTT18=
EXTT19=
PLAYORDER=
